<svg class="svg-icon" style="width: 5rem; height: 5rem;vertical-align: middle;fill: 
currentColor;overflow: hidden;" viewBox="0 0 1024 1024" version="1.1" xmlns="http://www.w3.org/2000/svg">
<path d="M983.04 747.84l-49.6-53.76A145.92 145.92 0 0 1 896 568.64l13.44-72a27.84 27.84 0 0 0-46.4-25.6l-53.76 49.6a145.92 145.92 0 0 1-124.48 36.16l-72-12.8a27.84 27.84 0 0 0-25.6 46.4l49.6 53.76A145.92 145.92 0 0 1 672 768l-13.44 72a27.84 27.84 0 0 0 46.4 25.6l53.76-49.6a145.92 145.92 0 0 1 125.76-36.16l72 13.44a27.84 27.84 0 0 0 26.56-45.44zM647.36 435.2a58.24 58.24 0 1 0 107.52-45.12c-166.08-320-544-296.64-698.24-67.52-17.6 25.92-35.84 52.16-9.6 69.44 38.72 25.92 38.08-32 116.8-91.2a310.4 310.4 0 0 1 483.52 134.4z" fill="#231F20" /></svg>